<svg width="512" height="512" xmlns="http://www.w3.org/2000/svg">
  <path d="M0 256 A 100 100 0 1 1 200 256" fill="#A9CC54" />
  <path d="M13.4 206 A 100 100 0 0 1 186.4 206" fill="#B6DE64" />
  
  <path d="M0 256 A 100 100 0 1 0 200 256" fill="#B6DE64" />
  <path d="M13.4 306 A 100 100 0 0 0 186.4 306" fill="#A9CC54" />

  <path d="M100 256 L 100 206 L 432 206 L 402 256" fill="#A9CC54" />
  <path d="M100 206 L 100 156 L 482 156 L 432 206" fill="#B6DE64" />
  <path d="M100 256 L 100 306 L 432 306 L 402 256" fill="#B6DE64" />
  <path d="M100 356 L 100 306 L 432 306 L 482 356" fill="#A9CC54" />
  
  <path d="M482 306 A 50 50 0 0 1 482 206 A 25 25 0 0 0 482 156 A 100 100 0 0 0 482 356 A 25 25 0 0 0 482 306" fill="#DDF4A4" />
</svg>